<svg width="148" height="49" viewBox="0 0 148 49" fill="none" xmlns="http://www.w3.org/2000/svg">
<g clip-path="url(#clip0_54_1200)">
<path d="M0.772799 49C0.864114 48.8631 0.927332 48.7083 0.927332 48.4958V42.0736C0.927332 41.8539 0.864114 41.717 0.772799 41.5693H3.47361C4.64665 41.5693 5.91452 42.387 5.91452 43.6764C5.91452 45.0271 4.55533 45.7079 3.03811 45.7079H2.49022L2.34622 45.3621H3.07674C3.71594 45.3621 4.87142 44.9443 4.87142 43.6764C4.87142 42.2717 3.90208 41.9583 3.28395 41.9583H1.93531V48.4741C1.93531 48.7047 2.00906 48.8523 2.10037 48.9964H0.769287L0.772799 49Z" fill="white"/>
<path d="M16.4439 49C16.5352 48.8631 16.5984 48.7083 16.5984 48.4958V42.0736C16.5984 41.8539 16.5352 41.717 16.4439 41.5693H19.1447C20.3177 41.5693 21.5856 42.2825 21.5856 43.6224C21.5856 44.775 20.6584 45.2793 19.3905 45.445L22.1405 48.9964H21.3152C21.0693 48.9964 20.7989 48.8704 20.6444 48.6722L17.9541 45.2577H18.7478C19.387 45.2577 20.5425 44.8398 20.5425 43.572C20.5425 42.1672 19.5732 41.9583 18.955 41.9583H17.6064V48.4741C17.6064 48.7047 17.6801 48.8523 17.7715 48.9964H16.4404L16.4439 49Z" fill="white"/>
<path d="M35.7956 41.4144C37.6289 41.4144 39.4657 42.7975 39.4657 45.2792C39.4657 47.7609 37.6324 49.1549 35.7956 49.1549C33.9587 49.1549 32.1254 47.7609 32.1254 45.2792C32.1254 42.7975 33.9587 41.4144 35.7956 41.4144ZM35.7534 48.7983C37.1231 48.7983 38.3489 47.7717 38.3489 45.3729C38.3489 43.6008 37.6886 41.7386 35.8553 41.7386C34.4645 41.7386 33.2774 42.7867 33.2774 45.1856C33.2774 46.9253 33.8955 48.7983 35.7499 48.7983H35.7534Z" fill="white"/>
<path d="M50.1494 49C50.2408 48.8631 50.304 48.7083 50.304 48.4958V42.0736C50.304 41.8539 50.2408 41.717 50.1494 41.5693H52.8503C54.0233 41.5693 55.2912 42.387 55.2912 43.6764C55.2912 45.0271 53.932 45.7079 52.4148 45.7079H51.8669L51.7229 45.3621H52.4534C53.0926 45.3621 54.2481 44.9443 54.2481 43.6764C54.2481 42.2717 53.2787 41.9583 52.6606 41.9583H51.312V48.4741C51.312 48.7047 51.3857 48.8523 51.477 48.9964H50.1459L50.1494 49Z" fill="white"/>
<path d="M70.3018 49H65.8204C65.9222 48.8523 65.9749 48.6758 65.9749 48.4958V42.0736C65.9749 41.8755 65.9117 41.717 65.8204 41.5693H69.7891L69.336 42.2825C68.191 41.9583 67.6958 41.9583 66.9864 41.9583V44.5337H69.1182L68.7881 45.1928C67.8609 44.9191 67.6958 44.9191 66.9864 44.9191V48.4165C66.9864 48.4777 66.9969 48.5426 67.0075 48.6038C67.8925 48.6038 68.7179 48.6038 69.8523 48.2796L70.3053 48.9928L70.3018 49Z" fill="white"/>
<path d="M81.0913 49C81.1826 48.8631 81.2458 48.7083 81.2458 48.4958V42.0736C81.2458 41.8539 81.1826 41.717 81.0913 41.5693H83.7921C84.9651 41.5693 86.233 42.2825 86.233 43.6224C86.233 44.775 85.3058 45.2793 84.0379 45.445L86.7879 48.9964H85.9626C85.7167 48.9964 85.4463 48.8704 85.2918 48.6722L82.6015 45.2577H83.3952C84.0344 45.2577 85.1899 44.8398 85.1899 43.572C85.1899 42.1672 84.2206 41.9583 83.6024 41.9583H82.2538V48.4741C82.2538 48.7047 82.3275 48.8523 82.4189 48.9964H81.0878L81.0913 49Z" fill="white"/>
<path d="M101.893 42.2754C100.998 42.0233 100.545 41.9621 99.8634 41.9621V48.4995C99.8634 48.6976 99.9266 48.8561 100.018 49.0037H98.6868C98.7782 48.8561 98.8519 48.6904 98.8519 48.4815V41.9657C98.1706 41.9657 97.7175 42.0269 96.8219 42.279L96.411 41.5767H102.304L101.893 42.279V42.2754Z" fill="white"/>
<path d="M112.63 49C112.721 48.8631 112.784 48.6867 112.784 48.4958V42.0736C112.784 41.8755 112.721 41.717 112.63 41.5693H113.961C113.877 41.7062 113.817 41.8611 113.817 42.0412V48.5138C113.817 48.7011 113.88 48.8595 113.961 48.9964H112.63V49Z" fill="white"/>
<path d="M129.439 49H124.957C125.059 48.8523 125.112 48.6758 125.112 48.4958V42.0736C125.112 41.8755 125.048 41.717 124.957 41.5693H128.926L128.473 42.2825C127.328 41.9583 126.833 41.9583 126.123 41.9583V44.5337H128.255L127.925 45.1928C126.998 44.9191 126.833 44.9191 126.123 44.9191V48.4165C126.123 48.4777 126.134 48.5426 126.144 48.6038C127.029 48.6038 127.855 48.6038 128.989 48.2796L129.442 48.9928L129.439 49Z" fill="white"/>
<path d="M144.853 43.6152L144.667 43.2802C144.256 42.5454 143.772 41.6882 142.525 41.6882C141.833 41.6882 141.039 42.1276 141.039 43.1037C141.039 43.9934 141.71 44.2887 142.42 44.6021L142.75 44.7498C144.39 45.5134 145.099 45.924 145.099 46.9181C145.099 48.1139 144.077 49.1585 142.441 49.1585C141.008 49.1585 140.038 48.3625 139.771 47.5016L140.154 46.5795C140.361 47.5232 141.204 48.8523 142.525 48.8523C143.09 48.8523 144.165 48.3805 144.165 47.5232C144.165 46.9901 144.011 46.3814 142.525 45.7619C140.66 44.9875 140.154 44.5156 140.154 43.6368C140.154 42.4626 141.05 41.4144 142.525 41.4144C143.803 41.4144 144.534 41.9079 145.092 42.5454L144.857 43.6152H144.853Z" fill="white"/>
<path d="M70.46 33.9982C70.8288 33.4507 71.0782 32.8167 71.0782 31.9739V6.09799C71.0782 5.21193 70.8323 4.66444 70.46 4.07373H81.2422C85.9344 4.07373 90.9953 6.94443 90.9953 12.3473C90.9953 16.9901 87.29 19.0179 82.2291 19.6915L93.2185 34.0018H89.9241C88.9372 34.0018 87.866 33.4939 87.2479 32.6943L76.5044 18.9351H79.6723C82.2256 18.9351 86.8335 17.2458 86.8335 12.1383C86.8335 6.48339 82.9631 5.63695 80.4941 5.63695H75.103V31.8911C75.103 32.8204 75.391 33.4111 75.7633 34.0018H70.453L70.46 33.9982Z" fill="white"/>
<path d="M115.815 6.90121C112.233 5.88908 110.424 5.63335 107.706 5.63335V31.9703C107.706 32.7735 107.952 33.4039 108.324 33.9946H103.014C103.382 33.4039 103.674 32.7267 103.674 31.8839V5.63335C100.959 5.63335 99.1467 5.88548 95.5644 6.90121L93.9172 4.07373H117.459L115.812 6.90121H115.815Z" fill="white"/>
<path d="M120.957 33.9982C121.326 33.4507 121.575 32.7303 121.575 31.9739V6.09799C121.575 5.29477 121.329 4.66444 120.957 4.07373H126.267C125.937 4.62122 125.691 5.25515 125.691 5.97192V17.4115H140.424V6.09799C140.424 5.29477 140.179 4.66444 139.806 4.07373H145.117C144.787 4.62122 144.541 5.25515 144.541 5.97192V32.0568C144.541 32.8168 144.787 33.4507 145.117 33.9982H139.806C140.175 33.4507 140.424 32.7303 140.424 31.9739V18.9747H125.691V32.0604C125.691 32.8204 125.937 33.4543 126.267 34.0018H120.957V33.9982Z" fill="white"/>
<path d="M16.0082 17.5807C18.8495 17.5807 24.1563 17.5807 27.8615 18.6793L29.1786 16.0211H16.0082V17.5843V17.5807Z" fill="white"/>
<path d="M20.6617 5.63329C23.503 5.63329 25.4768 5.63329 30.046 6.94077L31.8583 4.07007H16.0117C16.3032 4.53471 16.1662 5.22267 16.5947 5.61167L20.6617 5.63329Z" fill="white"/>
<path d="M21.3431 32.4385C24.5988 32.4385 26.8641 32.4385 32.1041 31.131L34.1798 34.0017H16.0082C16.3418 33.537 16.1873 32.8491 16.6755 32.4601L21.3395 32.4385H21.3431Z" fill="white"/>
<path d="M0.74469 34.8086C3.22423 34.2575 3.52276 33.1985 3.52276 31.9523V9.81153H1.18721C4.23923 8.01058 8.43619 0 8.43619 0V32.082C8.46078 32.9788 8.46429 34.2071 11.2459 34.8086H0.74469Z" fill="white"/>
<path d="M56.38 24.9323L60.3908 33.5984C60.4961 33.8181 60.7455 33.9982 60.9949 33.9982H65.0794L64.4754 33.4868C64.2962 33.3427 64.0855 33.0509 63.9766 32.8312L52.5061 8.97955C52.2919 8.5077 51.7615 8.17993 51.2628 8.17993H48.3513L48.3864 8.21595C48.6709 8.47168 48.9554 8.87149 49.131 9.19927L50.3743 11.3856L40.7511 32.8348C40.6457 33.0545 40.4666 33.3463 40.2524 33.4904L39.5781 34.0018H41.8504L45.935 24.9359L46.7147 23.2322L51.0837 13.4999L55.7724 23.6248" fill="white"/>
<path d="M62.5894 4.07379C62.5894 4.07379 44.7198 5.30924 42.5845 4.16024L39.7081 6.99492C39.7081 6.99492 56.8542 5.0463 59.8008 6.78961L62.5894 4.07379Z" fill="white"/>
</g>
<defs>
<clipPath id="clip0_54_1200">
<rect width="148" height="49" fill="white"/>
</clipPath>
</defs>
</svg>
