<svg width="772" height="187" viewBox="0 0 772 187" fill="none" xmlns="http://www.w3.org/2000/svg">
<path d="M372.59 182.65C374.561 179.712 375.894 176.309 375.894 171.785V32.9004C375.894 28.1446 374.58 25.2061 372.59 22.0355H430.216C455.294 22.0355 482.343 37.4436 482.343 66.4424C482.343 91.362 462.54 102.246 435.491 105.861L494.225 182.67H476.618C471.343 182.67 465.618 179.944 462.314 175.652L404.895 101.802H421.826C435.472 101.802 460.099 92.7347 460.099 65.3211C460.099 34.969 439.414 30.4258 426.218 30.4258H397.405V171.341C397.405 176.329 398.944 179.499 400.934 182.67H372.552L372.59 182.65Z" fill="white"/>
<path d="M614.995 37.2116C595.849 31.7791 586.182 30.4065 571.653 30.4065V171.766C571.653 176.077 572.967 179.46 574.957 182.631H546.575C548.546 179.46 550.104 175.826 550.104 171.302V30.4065C535.595 30.4065 525.909 31.7598 506.763 37.2116L497.959 22.0355H623.78L614.976 37.2116H614.995Z" fill="white"/>
<path d="M642.476 182.65C644.447 179.712 645.779 175.845 645.779 171.785V32.9004C645.779 28.5893 644.465 25.2061 642.476 22.0355H670.857C669.093 24.9741 667.779 28.3766 667.779 32.2238V93.624H746.522V32.9004C746.522 28.5893 745.208 25.2061 743.218 22.0355H771.6C769.835 24.9741 768.521 28.3766 768.521 32.2238V172.23C768.521 176.309 769.835 179.712 771.6 182.65H743.218C745.189 179.712 746.522 175.845 746.522 171.785V102.014H667.779V172.249C667.779 176.329 669.093 179.731 670.857 182.67H642.476V182.65Z" fill="white"/>
<path d="M81.5671 94.5323C96.7526 94.5323 125.115 94.5323 144.918 100.429L151.957 86.1613H81.5671V94.5516V94.5323Z" fill="white"/>
<path d="M106.438 30.4058C121.623 30.4058 132.173 30.4058 156.593 37.4235L166.279 22.0155H81.5853C83.1433 24.5094 82.4112 28.2019 84.7013 30.2898L106.438 30.4058Z" fill="white"/>
<path d="M110.08 174.278C127.48 174.278 139.588 174.278 167.593 167.261L178.687 182.669H81.5671C83.3503 180.175 82.5244 176.482 85.1335 174.394L110.061 174.278H110.08Z" fill="white"/>
<path d="M-0.0100098 187C13.2421 184.042 14.8377 178.358 14.8377 171.669V52.8322H2.35511C18.6669 43.1659 41.098 0.170288 41.098 0.170288V172.365C41.2294 177.179 41.2481 183.772 56.1146 187H-0.0100098Z" fill="white"/>
<path d="M297.338 133.99L318.774 180.504C319.337 181.684 320.67 182.65 322.003 182.65H343.833L340.605 179.905C339.647 179.132 338.521 177.566 337.939 176.387L276.634 48.3664C275.489 45.8338 272.654 44.0746 269.989 44.0746H254.428L254.616 44.2679C256.136 45.6405 257.657 47.7864 258.595 49.5457L265.24 61.2806L213.808 176.406C213.245 177.585 212.288 179.151 211.143 179.924L207.539 182.67H219.683L241.514 134.01L245.681 124.865L269.032 72.6288L294.091 126.973" fill="white"/>
<path d="M330.525 22.0356C330.525 22.0356 235.019 28.6667 223.607 22.4996L208.233 37.7143C208.233 37.7143 299.872 27.2554 315.621 36.6124L330.525 22.0356Z" fill="white"/>
</svg>
